# xmcd
#
# Track frame offsets:
# 150
# 13113
# 26171
# 36425
# 49066
# 63010
# 78466
# 90896
# 101826
# 112841
# 128378
# 140234
# 152593
#
# Disc length: 2243 seconds
#
#
# Revision: 0
# Processed by: cddbd v1.5.1PL0 Copyright (c) Steve Scherf et al.
# Submitted via: FreeRIP 2.80 
#
DISCID=9e08c10d
DTITLE=The Coasters - Searchin'
DYEAR=1900
DGENRE=R&B
TTITLE0=Run Red Run
TTITLE1=Along Came Jones
TTITLE2=Young Blood
TTITLE3=Poison Ivy
TTITLE4=Searchin'
TTITLE5=Little Egypt
TTITLE6=Love Potion # 9
TTITLE7=As Quiet As It's Kept
TTITLE8=It Don't Take Much
TTITLE9=Down In Mexico
TTITLE10=It Ain't Sanitary
TTITLE11=Whip It On Me Baby
TTITLE12=One Foot Draggin'
EXTD=
EXTT0=
EXTT1=
EXTT2=
EXTT3=
EXTT4=
EXTT5=
EXTT6=
EXTT7=
EXTT8=
EXTT9=
EXTT10=
EXTT11=
EXTT12=
PLAYORDER=
